<?xml version="1.0" encoding="utf-8"?>
<!-- Generator: Adobe Illustrator 25.4.1, SVG Export Plug-In . SVG Version: 6.00 Build 0)  -->
<svg version="1.1" xmlns="http://www.w3.org/2000/svg" xmlns:xlink="http://www.w3.org/1999/xlink" x="0px" y="0px"
	 viewBox="0 0 163.4 88.5" style="enable-background:new 0 0 163.4 88.5;" xml:space="preserve">
<style type="text/css">
	.st0{clip-path:url(#SVGID_00000120546270580136091850000011144550462999005876_);}
	.st1{clip-path:url(#SVGID_00000106144262006530286120000017953748756013987208_);}
	.st2{clip-path:url(#SVGID_00000096046010233793527720000018292241766391099067_);}
	.st3{clip-path:url(#SVGID_00000166640007866607310990000002967837154034656184_);}
	.st4{clip-path:url(#SVGID_00000165215123221418231640000008921817658985482135_);}
	.st5{clip-path:url(#SVGID_00000041977913844155152710000013201794350136187809_);}
	.st6{clip-path:url(#SVGID_00000142166031603482880240000017243775214420438932_);}
	.st7{clip-path:url(#SVGID_00000040572288048140961310000014373151003579508356_);}
	.st8{fill:#FFFFFF;}
	.st9{fill:#111111;}
	.st10{clip-path:url(#SVGID_00000070825863260068713960000002426024662000219578_);}
	.st11{clip-path:url(#SVGID_00000002358828781380270910000002956272014152499334_);}
	.st12{clip-path:url(#SVGID_00000087411570812155427890000009011352044110446011_);}
	.st13{clip-path:url(#SVGID_00000039827503644160269210000015154126870021073580_);}
	.st14{clip-path:url(#SVGID_00000047778115816035548270000001169426492687614392_);}
	.st15{clip-path:url(#SVGID_00000146483482865916616250000001818648952535208104_);}
	.st16{clip-path:url(#SVGID_00000130641654578317391210000009900482513149487275_);}
	.st17{clip-path:url(#SVGID_00000129188308730035899600000008622984753271057593_);}
	.st18{clip-path:url(#SVGID_00000146497801716943738550000005418081377834187144_);}
	.st19{clip-path:url(#SVGID_00000074418188001614742450000006279498642684990117_);}
	.st20{clip-path:url(#SVGID_00000132088176877535856040000017444984391042215321_);}
	.st21{clip-path:url(#SVGID_00000005231340774169575340000008998694777800435601_);}
	.st22{clip-path:url(#SVGID_00000095315508382270956760000010918847427939097001_);}
	.st23{clip-path:url(#SVGID_00000047781071182575821390000013508896664084450993_);}
	.st24{clip-path:url(#SVGID_00000160170880965327460700000010491637572197740419_);}
	.st25{clip-path:url(#SVGID_00000112626654567517166450000001346574322549357237_);}
	.st26{clip-path:url(#SVGID_00000066515960263602347070000002634194599582605476_);}
	.st27{opacity:0.5;fill:none;stroke:#F4136B;stroke-width:0.25;stroke-miterlimit:10;}
</style>
<g id="Ebene_1">
	<g>
		<path class="st9" d="M49,56.7c-0.5-0.3-0.8-0.7-1.2-1.2c-0.4-0.5-0.6-1.2-0.7-1.8c-0.1-0.6-0.2-1.2-0.2-1.8V18.7
			c0-5.2-1.6-9.4-4.8-12.6c-3.2-3.2-8.2-4.8-15-4.8c-6.1,0-10.9,1.5-14.3,4.6C9.4,8.9,7.7,13.3,7.7,19v6.4H1.5V35h6.1v32.1h11.9V35
			h7.7v-9.6h-7.7c0-8.3,0.6-9.4,1.8-11.3c1.2-1.8,3.2-2.8,6.1-2.8c1.5,0,2.7,0.3,3.7,0.8c1,0.5,1.7,1.2,2.3,2.1
			c0.6,0.9,0.9,1.9,1.2,3.1c0.2,1.2,0.3,2.4,0.3,3.7v36.8c0,1.4,0.3,2.6,0.8,3.8c0.5,1.2,1.3,2.2,2.3,3.2c1,0.9,2.1,1.6,3.5,2.1
			c10.1,3,18.5-1.1,18.5-1.1l-4-10.1C52,58.4,49.6,57,49,56.7z"/>
		<path class="st9" d="M146.3,34.6c-1.1-2.9-2.7-5.5-4.9-7.7c-2.1-2.2-4.7-4-7.7-5.3c-3-1.3-6.4-2-10.2-2c-3.8,0-7.2,0.7-10.2,2
			c-3,1.3-5.6,3.1-7.7,5.3c-2.1,2.2-3.7,4.8-4.9,7.7c-1.1,2.9-1.7,6-1.7,9.3c0,3.2,0.6,6.3,1.7,9.2c1.1,2.9,2.7,5.5,4.9,7.7
			c2.1,2.2,4.7,4,7.7,5.3c3,1.3,6.4,2,10.2,2c3.8,0,7.2-0.7,10.2-2c3-1.3,5.6-3.1,7.7-5.3c2.1-2.2,3.7-4.8,4.8-7.7
			c1.1-2.9,1.7-6,1.7-9.2C148,40.6,147.4,37.5,146.3,34.6z M134.8,49.5c-0.6,1.7-1.5,3.2-2.6,4.5c-1.1,1.2-2.4,2.2-3.9,2.9
			c-1.5,0.7-3.1,1-4.8,1c-1.7,0-3.3-0.3-4.8-1c-1.5-0.7-2.8-1.6-3.9-2.9c-1.1-1.2-2-2.7-2.6-4.4s-0.9-3.6-0.9-5.7
			c0-2,0.3-3.9,0.9-5.6c0.6-1.7,1.5-3.2,2.6-4.5c1.1-1.2,2.4-2.2,3.9-2.9c1.5-0.7,3.1-1.1,4.8-1.1c1.7,0,3.3,0.3,4.8,1
			c1.5,0.7,2.8,1.6,3.9,2.9c1.1,1.2,2,2.7,2.6,4.5c0.6,1.7,0.9,3.6,0.9,5.6C135.8,45.8,135.4,47.7,134.8,49.5z"/>
		<path class="st9" d="M88.2,20.4L77,56.8L64.4,20.4H52.1l18.4,46.6c-0.1,0.9-0.2,1.7-0.4,2.6c-0.1,0.4-0.2,0.7-0.3,1.1c0,0,0,0,0,0
			c-0.5,1.2-1,2.4-1.7,3.3c-0.1,0.1-0.1,0.2-0.2,0.3c0,0.1-0.1,0.1-0.2,0.2c-0.8,1-1.8,1.9-3,2.7c0.7,1.7,1.4,3.3,2.2,5.4l1.8,4.7
			c0.3-0.1,0.6-0.3,0.9-0.4c0.3-0.2,0.6-0.3,0.9-0.4c0.2-0.1,0.4-0.2,0.5-0.3c1.3-0.7,2.3-1.4,3.4-2.3c0,0,0.1-0.1,0.1-0.1
			c0.1-0.1,0.3-0.2,0.4-0.4c1.2-1.1,2.2-2.1,3-3.2c1.4-1.8,2.5-3.7,3.3-5.9c0.7-1.8,1.2-3.7,1.4-5.6c0-0.3,0.1-0.6,0.2-1l16.6-47.3
			H88.2z"/>
		<path class="st9" d="M161.3,62.6c-0.3-0.8-0.8-1.6-1.4-2.2c-0.6-0.6-1.3-1.1-2.2-1.5c-0.9-0.4-1.8-0.6-2.9-0.6
			c-1.1,0-2.1,0.2-2.9,0.6c-0.9,0.4-1.6,0.9-2.2,1.5c-0.6,0.6-1.1,1.4-1.4,2.2c-0.3,0.8-0.5,1.7-0.5,2.6c0,0.9,0.2,1.8,0.5,2.6
			c0.3,0.8,0.8,1.6,1.4,2.2c0.6,0.6,1.3,1.1,2.2,1.5c0.9,0.4,1.8,0.6,2.9,0.6c1.1,0,2.1-0.2,2.9-0.6c0.9-0.4,1.6-0.9,2.2-1.5
			c0.6-0.6,1.1-1.4,1.4-2.2c0.3-0.8,0.5-1.7,0.5-2.6C161.7,64.3,161.6,63.4,161.3,62.6z"/>
	</g>
</g>
<g id="Ebene_2">
</g>
</svg>
